<svg xmlns="http://www.w3.org/2000/svg" xmlns:xlink="http://www.w3.org/1999/xlink" width="80" height="79" version="1.1" viewBox="0 0 80 79"><g id="Page-1" fill="none" fill-rule="evenodd" stroke="none" stroke-width="1"><g id="Group"><polygon id="Path" fill="#79A5FF" points="8.055 15.418 23.577 15.418 26.501 6.537"/><polygon id="Path" fill="#5489F3" points="32.451 3.673 47.691 3.673 50.804 12.553"/><polygon id="Path" fill="#326DE6" points="26.501 6.537 26.501 15.418 23.577 15.418"/><polygon id="Path" fill="#79A5FF" points="26.501 6.537 40.07 20.709 40.071 7.36"/><polygon id="Path" fill="#A8C4FF" points="32.451 3.673 47.691 3.673 40.071 0"/><polygon id="Path" fill="#326DE6" points="26.501 6.537 40.071 7.362 32.451 3.673"/><polygon id="Path" fill="#A8C4FF" points="26.501 6.537 26.501 32.588 40.07 20.709"/><polygon id="Path" fill="#A8C4FF" points="8.055 15.418 20.938 28.165 26.501 15.418"/><polygon id="Path" fill="#79A5FF" points="26.501 15.418 26.501 44.657 20.938 28.165"/><polygon id="Path" fill="#79A5FF" points="20.938 28.165 8.055 15.418 5.144 28.165"/><polygon id="Path" fill="#5489F3" points="26.501 44.657 40.07 20.709 26.501 32.588"/><polygon id="Path" fill="#A8C4FF" points="20.938 28.165 17.278 35.959 26.501 44.657"/><polygon id="Path" fill="#79A5FF" points="17.278 35.959 2.227 40.949 5.144 28.165"/><polygon id="Path" fill="#5489F3" points="5.144 28.165 17.278 35.959 20.938 28.165"/><polygon id="Path" fill="#326DE6" points=".148 50.061 17.278 35.959 2.227 40.949"/><polygon id="Path" fill="#A8C4FF" points="40.071 20.709 50.804 12.553 40.071 7.36"/><polygon id="Path" fill="#A8C4FF" points="50.804 12.553 62.853 10.967 47.691 3.673"/><polygon id="Path" fill="#5489F3" points="40.07 20.709 50.804 27.677 62.853 10.967 50.804 12.553"/><polygon id="Path" fill="#2C60C8" points="38.653 36.167 50.804 27.677 40.07 20.709"/><polygon id="Path" fill="#326DE6" points="34.937 38.759 33.286 52.922 50.804 37.648 42.29 33.623"/><polygon id="Path" fill="#2D55A5" points="33.286 52.922 26.501 60.68 9.594 48.124 26.501 44.657"/><polygon id="Path" fill="#2D55A5" points=".148 50.061 9.594 48.124 8.614 60.68"/><polygon id="Path" fill="#5489F3" points="8.614 60.68 26.501 60.68 16.013 52.89"/><polygon id="Path" fill="#326DE6" points="9.594 48.124 8.614 60.68 16.013 52.89"/><polygon id="Path" fill="#234A96" points="17.786 60.68 8.614 60.68 13.27 66.515"/><polygon id="Path" fill="#1D52BB" points="16.013 66.515 21.44 66.515 26.501 60.68 17.786 60.68"/><polygon id="Path" fill="#326DE6" points="13.27 66.515 16.013 66.515 17.786 60.68"/><polygon id="Path" fill="#5489F3" points="21.44 66.515 22.303 77.842 13.27 66.515"/><polygon id="Path" fill="#1D4493" points="21.44 66.515 33.286 66.515 33.286 52.922"/><polygon id="Path" fill="#234A96" points="33.286 66.515 21.44 66.515 22.303 77.842"/><polygon id="Path" fill="#2D55A5" points="50.804 27.677 50.804 37.648 63.499 27.677"/><polygon id="Path" fill="#326DE6" points="50.804 27.677 74.883 27.677 72.085 15.418"/><polygon id="Path" fill="#326DE6" points="50.804 37.648 57.152 43.854 63.499 27.677"/><polygon id="Path" fill="#2D55A5" points="33.286 52.922 57.152 43.854 50.804 37.648"/><polygon id="Path" fill="#1D52BB" points="57.152 43.854 74.096 36.411 74.883 27.677 63.499 27.677"/><polygon id="Path" fill="#12357C" points="74.096 36.411 74.883 27.677 76.878 36.411"/><polygon id="Path" fill="#1D52BB" points="74.096 36.411 70.034 43.854 78.761 44.653 76.878 36.411"/><polygon id="Path" fill="#12357C" points="70.034 43.854 57.152 43.854 74.096 36.411"/><polygon id="Path" fill="#1D4493" points="63.499 43.854 52.14 54.402 33.286 52.922 57.152 43.854"/><polygon id="Path" fill="#326DE6" points="52.14 54.402 70.034 43.854 63.499 43.854"/><polygon id="Path" fill="#5489F3" points="33.286 66.515 43.376 53.715 33.286 52.922"/><polygon id="Path" fill="#1D4493" points="42.713 60.68 52.14 54.402 43.376 53.715"/><polygon id="Path" fill="#1D52BB" points="42.713 60.68 43.376 53.715 33.286 66.515"/><polygon id="Path" fill="#12357C" points="70.034 43.854 74.096 52.668 79.992 50.061 78.761 44.653"/><polygon id="Path" fill="#1D4493" points="74.096 52.668 79.992 50.061 74.096 57.456"/><polygon id="Path" fill="#12357C" points="74.096 57.456 63.499 47.712 70.034 43.854"/><polygon id="Path" fill="#326DE6" points="70.034 43.854 74.096 52.668 74.096 57.456"/><polygon id="Path" fill="#1D4493" points="52.14 54.402 74.096 57.456 63.499 47.712"/><polygon id="Path" fill="#1D52BB" points="52.14 54.402 61.087 61.345 61.087 55.646"/><polygon id="Path" fill="#12357C" points="61.087 61.345 70.992 61.345 74.096 57.456 61.087 55.646"/><polygon id="Path" fill="#2D55A5" points="61.087 61.345 70.992 61.345 66.039 67.557"/><polygon id="Path" fill="#12357C" points="61.087 61.345 61.087 73.774 66.039 67.557"/><polygon id="Path" fill="#1D52BB" points="33.286 66.515 30.834 77.842 22.303 77.842"/><polygon id="Path" fill="#12357C" points="33.286 66.515 46.268 66.515 53.634 61.345 41.641 61.345"/><polygon id="Path" fill="#2D55A5" points="53.634 61.345 48.519 56.816 41.641 61.345"/><polygon id="Path" fill="#1D4493" points="53.634 61.345 52.14 54.402 48.519 56.816"/><polygon id="Path" fill="#234A96" points="61.087 61.345 53.634 61.345 52.14 54.402"/><polygon id="Path" fill="#326DE6" points="30.834 77.842 46.268 66.515 33.286 66.515"/><polygon id="Path" fill="#12357C" points="30.834 77.842 41.641 77.842 40.07 71.071"/><polygon id="Path" fill="#326DE6" points="57.837 77.842 61.087 61.345 61.087 73.774"/><polygon id="Path" fill="#12357C" points="61.087 61.345 53.634 61.345 57.837 77.842"/><polygon id="Path" fill="#1D4493" points="57.837 77.842 46.268 66.515 53.634 61.345"/><polygon id="Path" fill="#1D4493" points="46.268 66.515 41.641 77.842 40.07 71.071"/><polygon id="Path" fill="#12357C" points="41.641 77.842 57.837 77.842 50.924 71.071"/><polygon id="Path" fill="#2D55A5" points="41.641 77.842 46.268 66.515 50.924 71.071"/><polygon id="Path" fill="#5489F3" points="42.29 33.623 50.804 27.677 50.804 37.648"/><polygon id="Path" fill="#79A5FF" points="26.501 44.653 38.653 36.167 34.749 30.114"/><polygon id="Path" fill="#79A5FF" points="34.749 30.114 38.653 36.167 40.071 20.709"/><polygon id="Path" fill="#2D55A5" points="50.804 27.677 62.844 10.977 65.61 19.141"/><polygon id="Path" fill="#5489F3" points="65.61 19.141 72.085 15.418 62.853 10.977"/><polygon id="Path" fill="#5489F3" points="33.286 52.89 34.937 38.759 26.501 44.657"/><polygon id="Path" fill="#2C60C8" points=".148 50.061 17.278 35.959 26.501 44.657"/><g id="Path" opacity=".858" transform="translate(0.308880, 0.926641)"><path fill="#FFF" d="M18.0909344,23.1115058 C18.5980232,23.1115058 19.0090811,22.7004479 19.0090811,22.19339 C19.0090811,21.6863012 18.5980232,21.2752432 18.0909344,21.2752432 C17.5838764,21.2752432 17.1728185,21.6863012 17.1728185,22.19339 C17.1728185,22.7004479 17.5838764,23.1115058 18.0909344,23.1115058 Z"/><path fill="#FFF" d="M7.07342085,41.8412355 C7.58047876,41.8412355 7.99153668,41.4304247 7.99153668,40.9232432 C7.99153668,40.4160618 7.58047876,40.0049421 7.07342085,40.0049421 C6.56633205,40.0049421 6.15527413,40.4160618 6.15527413,40.9232432 C6.15527413,41.4304247 6.56633205,41.8412355 7.07342085,41.8412355 Z"/><path fill="#FFF" d="M29.8429961,34.6798456 C30.3500541,34.6798456 30.7610811,34.2687259 30.7610811,33.7618533 C30.7610811,33.2546718 30.3500541,32.8435521 29.8429961,32.8435521 C29.3359073,32.8435521 28.9248494,33.2546718 28.9248494,33.7618533 C28.9248494,34.2687259 29.3359073,34.6798456 29.8429961,34.6798456 Z"/><path fill="#FFF" d="M43.9820849,40.9232432 C44.4892664,40.9232432 44.9003861,40.5121236 44.9003861,40.0049421 C44.9003861,39.4980695 44.4892664,39.0869498 43.9820849,39.0869498 C43.4752124,39.0869498 43.0640927,39.4980695 43.0640927,40.0049421 C43.0640927,40.5121236 43.4752124,40.9232432 43.9820849,40.9232432 Z"/><path fill="#FFF" d="M22.4979768,54.5115058 C23.0050347,54.5115058 23.4160927,54.1003861 23.4160927,53.5935135 C23.4160927,53.086332 23.0050347,52.6752124 22.4979768,52.6752124 C21.990888,52.6752124 21.5798301,53.086332 21.5798301,53.5935135 C21.5798301,54.1003861 21.990888,54.5115058 22.4979768,54.5115058 Z"/><path fill="#FFF" d="M36.820695,61.6728958 C37.3278764,61.6728958 37.7389961,61.2617761 37.7389961,60.7549035 C37.7389961,60.247722 37.3278764,59.8366023 36.820695,59.8366023 C36.3138224,59.8366023 35.9027027,60.247722 35.9027027,60.7549035 C35.9027027,61.2617761 36.3138224,61.6728958 36.820695,61.6728958 Z"/><path fill="#FFF" d="M61.2429344,37.6179151 C61.7501158,37.6179151 62.1612355,37.2067954 62.1612355,36.6999228 C62.1612355,36.1927413 61.7501158,35.7816216 61.2429344,35.7816216 C60.7360618,35.7816216 60.3249421,36.1927413 60.3249421,36.6999228 C60.3249421,37.2067954 60.7360618,37.6179151 61.2429344,37.6179151 Z"/><path fill="#FFF" d="M72.8114286,42.7595367 C73.31861,42.7595367 73.7294208,42.348417 73.7294208,41.8412355 C73.7294208,41.3343629 73.31861,40.9232432 72.8114286,40.9232432 C72.3042471,40.9232432 71.8931274,41.3343629 71.8931274,41.8412355 C71.8931274,42.348417 72.3042471,42.7595367 72.8114286,42.7595367 Z"/><path fill="#FFF" d="M58.4886486,52.6752124 C58.9955212,52.6752124 59.4066409,52.2640927 59.4066409,51.7572201 C59.4066409,51.2500386 58.9955212,50.8389189 58.4886486,50.8389189 C57.9814672,50.8389189 57.5703475,51.2500386 57.5703475,51.7572201 C57.5703475,52.2640927 57.9814672,52.6752124 58.4886486,52.6752124 Z"/><path fill="#FFF" d="M64.5482625,63.5091892 C65.055444,63.5091892 65.4662548,63.0980695 65.4662548,62.590888 C65.4662548,62.0840154 65.055444,61.6728958 64.5482625,61.6728958 C64.0410811,61.6728958 63.6302703,62.0840154 63.6302703,62.590888 C63.6302703,63.0980695 64.0410811,63.5091892 64.5482625,63.5091892 Z"/><path fill="#FFF" d="M53.5308108,68.6508108 C54.0376834,68.6508108 54.4488031,68.2396911 54.4488031,67.7325097 C54.4488031,67.2256371 54.0376834,66.8145174 53.5308108,66.8145174 C53.0236293,66.8145174 52.6125097,67.2256371 52.6125097,67.7325097 C52.6125097,68.2396911 53.0236293,68.6508108 53.5308108,68.6508108 Z"/><path fill="#FFF" d="M59.4066409,12.6448494 C59.9138224,12.6448494 60.3249421,12.2337915 60.3249421,11.7267336 C60.3249421,11.2196448 59.9138224,10.8085869 59.4066409,10.8085869 C58.8997683,10.8085869 58.4886486,11.2196448 58.4886486,11.7267336 C58.4886486,12.2337915 58.8997683,12.6448494 59.4066409,12.6448494 Z"/><path fill="#FFF" d="M69.6898842,23.1115058 C70.1967568,23.1115058 70.6078764,22.7004479 70.6078764,22.19339 C70.6078764,21.6863012 70.1967568,21.2752432 69.6898842,21.2752432 C69.1827027,21.2752432 68.771583,21.6863012 68.771583,22.19339 C68.771583,22.7004479 69.1827027,23.1115058 69.6898842,23.1115058 Z"/><path fill="#FFF" d="M19.9271969,71.9558301 C20.4342857,71.9558301 20.8453436,71.5450193 20.8453436,71.0378378 C20.8453436,70.5306564 20.4342857,70.1195367 19.9271969,70.1195367 C19.420139,70.1195367 19.0090811,70.5306564 19.0090811,71.0378378 C19.0090811,71.5450193 19.420139,71.9558301 19.9271969,71.9558301 Z"/><path fill="#FFF" d="M32.9646332,10.8085869 C33.4718147,10.8085869 33.8826255,10.397529 33.8826255,9.89047104 C33.8826255,9.38338224 33.4718147,8.97232432 32.9646332,8.97232432 C32.4574517,8.97232432 32.0466409,9.38338224 32.0466409,9.89047104 C32.0466409,10.397529 32.4574517,10.8085869 32.9646332,10.8085869 Z"/><path fill="#FFF" d="M48.5726641,23.1115058 C49.0798456,23.1115058 49.4909653,22.7004479 49.4909653,22.19339 C49.4909653,21.6863012 49.0798456,21.2752432 48.5726641,21.2752432 C48.0657915,21.2752432 47.6546718,21.6863012 47.6546718,22.19339 C47.6546718,22.7004479 48.0657915,23.1115058 48.5726641,23.1115058 Z"/><line x1="18.091" x2="11.389" y1="22.193" y2="12.68" stroke="#FFF"/><polygon stroke="#FFF" points="18.091 22.193 7.073 40.923 22.498 53.594"/><line x1="7.073" x2="1.916" y1="40.923" y2="39.589" stroke="#FFF"/><line x1="7.073" x2=".206" y1="40.923" y2="47.181" stroke="#FFF"/><line x1="7.073" x2="4.736" y1="40.923" y2="27.437" stroke="#FFF"/><line x1="18.091" x2="5.731" y1="22.193" y2="23.219" stroke="#FFF"/><polygon stroke="#FFF" points="22.498 53.594 19.927 71.235 36.821 60.755"/><polygon stroke="#FFF" points="36.821 60.755 43.982 40.005 53.531 67.733"/><polyline stroke="#FFF" points="36.821 60.755 43.982 40.005 22.498 53.869"/><polygon stroke="#FFF" points="29.843 33.762 48.573 22.193 32.975 9.89"/><polyline stroke="#FFF" points="29.843 33.613 18.091 22.193 32.965 10.034"/><line x1="29.843" x2="22.498" y1="33.762" y2="53.459" stroke="#FFF"/><line x1="29.843" x2="43.982" y1="33.762" y2="40.005" stroke="#FFF"/><polygon stroke="#FFF" points="48.573 22.193 61.243 36.704 43.982 40.005"/><polyline stroke="#FFF" points="61.243 36.7 58.489 51.757 43.982 40.256"/><polygon stroke="#FFF" points="58.489 51.979 53.531 67.733 64.548 62.654"/><line x1="61.243" x2="64.548" y1="36.883" y2="62.654" stroke="#FFF"/><polyline stroke="#FFF" points="61.243 36.704 69.723 22.193 48.573 22.193"/><polyline stroke="#FFF" points="48.573 22.193 59.407 11.727 32.965 10.024"/><polyline stroke="#FFF" points="59.407 11.727 69.69 22.193 72.811 41.841 61.243 36.883"/><line x1="7.073" x2="19.927" y1="40.923" y2="71.038" stroke="#FFF"/><line x1="19.927" x2="53.531" y1="71.038" y2="67.733" stroke="#FFF"/><line x1="53.531" x2="53.323" y1="67.733" y2="76.899" stroke="#FFF"/><line x1="53.531" x2="59.407" y1="67.733" y2="74.615" stroke="#FFF"/><line x1="53.531" x2="39.775" y1="67.733" y2="76.914" stroke="#FFF"/><line x1="19.927" x2="25.528" y1="71.038" y2="76.914" stroke="#FFF"/><line x1="19.927" x2="17.247" y1="71.038" y2="71.038" stroke="#FFF"/><line x1="19.927" x2="19.595" y1="71.173" y2="74.259" stroke="#FFF"/><line x1="64.548" x2="70.681" y1="62.591" y2="60.512" stroke="#FFF"/><line x1="64.548" x2="64.548" y1="62.591" y2="68.339" stroke="#FFF"/><line x1="64.548" x2="67.281" y1="62.591" y2="64.8" stroke="#FFF"/><line x1="32.965" x2="28.282" y1="10.034" y2="4.474" stroke="#FFF"/><line x1="32.965" x2="36.912" y1="10.024" y2=".25" stroke="#FFF"/><line x1="32.965" x2="47.746" y1="10.024" y2="2.637" stroke="#FFF"/><line x1="18.091" x2="20.627" y1="22.193" y2="8.185" stroke="#FFF"/><line x1="69.723" x2="72.171" y1="22.193" y2="16.109" stroke="#FFF"/><line x1="69.723" x2="75.463" y1="22.193" y2="30.537" stroke="#FFF"/><line x1="69.723" x2="73.785" y1="22.193" y2="22.706" stroke="#FFF"/><line x1="59.407" x2="59.407" y1="11.727" y2="8.45" stroke="#FFF"/><line x1="59.407" x2="64.548" y1="11.727" y2="10.809" stroke="#FFF"/><line x1="59.407" x2="56.193" y1="11.727" y2="6.861" stroke="#FFF"/><line x1="72.811" x2="64.548" y1="41.841" y2="62.591" stroke="#FFF"/><line x1="72.811" x2="77.988" y1="41.841" y2="41.841" stroke="#FFF"/><line x1="72.811" x2="76.201" y1="41.841" y2="53.594" stroke="#FFF"/></g></g></g></svg>