<svg xmlns="http://www.w3.org/2000/svg" xmlns:xlink="http://www.w3.org/1999/xlink" width="467" height="65" version="1.1" viewBox="0 0 467 65"><g id="Page-1" fill="none" fill-rule="evenodd" stroke="none" stroke-width="1"><g id="Group"><polygon id="Path" fill="#79A5FF" points="6.597 12.627 19.309 12.627 21.704 5.354"/><polygon id="Path" fill="#5489F3" points="26.577 3.008 39.057 3.008 41.607 10.281"/><polygon id="Path" fill="#326DE6" points="21.704 5.354 21.704 12.627 19.309 12.627"/><polygon id="Path" fill="#79A5FF" points="21.704 5.354 32.816 16.96 32.817 6.028"/><polygon id="Path" fill="#A8C4FF" points="26.577 3.008 39.057 3.008 32.817 0"/><polygon id="Path" fill="#326DE6" points="21.704 5.354 32.817 6.03 26.577 3.008"/><polygon id="Path" fill="#A8C4FF" points="21.704 5.354 21.704 26.689 32.816 16.96"/><polygon id="Path" fill="#A8C4FF" points="6.597 12.627 17.147 23.067 21.704 12.627"/><polygon id="Path" fill="#79A5FF" points="21.704 12.627 21.704 36.573 17.147 23.067"/><polygon id="Path" fill="#79A5FF" points="17.147 23.067 6.597 12.627 4.213 23.067"/><polygon id="Path" fill="#5489F3" points="21.704 36.573 32.816 16.96 21.704 26.689"/><polygon id="Path" fill="#A8C4FF" points="17.147 23.067 14.15 29.449 21.704 36.573"/><polygon id="Path" fill="#79A5FF" points="14.15 29.449 1.823 33.536 4.213 23.067"/><polygon id="Path" fill="#5489F3" points="4.213 23.067 14.15 29.449 17.147 23.067"/><polygon id="Path" fill="#326DE6" points=".121 40.998 14.15 29.449 1.823 33.536"/><polygon id="Path" fill="#A8C4FF" points="32.817 16.96 41.607 10.281 32.817 6.028"/><polygon id="Path" fill="#A8C4FF" points="41.607 10.281 51.474 8.982 39.057 3.008"/><polygon id="Path" fill="#5489F3" points="32.816 16.96 41.607 22.666 51.474 8.982 41.607 10.281"/><polygon id="Path" fill="#2C60C8" points="31.655 29.62 41.607 22.666 32.816 16.96"/><polygon id="Path" fill="#326DE6" points="28.612 31.743 27.26 43.342 41.607 30.832 34.634 27.536"/><polygon id="Path" fill="#2D55A5" points="27.26 43.342 21.704 49.695 7.857 39.413 21.704 36.573"/><polygon id="Path" fill="#2D55A5" points=".121 40.998 7.857 39.413 7.055 49.695"/><polygon id="Path" fill="#5489F3" points="7.055 49.695 21.704 49.695 13.114 43.315"/><polygon id="Path" fill="#326DE6" points="7.857 39.413 7.055 49.695 13.114 43.315"/><polygon id="Path" fill="#234A96" points="14.567 49.695 7.055 49.695 10.868 54.474"/><polygon id="Path" fill="#1D52BB" points="13.114 54.474 17.559 54.474 21.704 49.695 14.567 49.695"/><polygon id="Path" fill="#326DE6" points="10.868 54.474 13.114 54.474 14.567 49.695"/><polygon id="Path" fill="#5489F3" points="17.559 54.474 18.265 63.75 10.868 54.474"/><polygon id="Path" fill="#1D4493" points="17.559 54.474 27.26 54.474 27.26 43.342"/><polygon id="Path" fill="#234A96" points="27.26 54.474 17.559 54.474 18.265 63.75"/><polygon id="Path" fill="#2D55A5" points="41.607 22.666 41.607 30.832 52.004 22.666"/><polygon id="Path" fill="#326DE6" points="41.607 22.666 61.327 22.666 59.035 12.627"/><polygon id="Path" fill="#326DE6" points="41.607 30.832 46.806 35.915 52.004 22.666"/><polygon id="Path" fill="#2D55A5" points="27.26 43.342 46.806 35.915 41.607 30.832"/><polygon id="Path" fill="#1D52BB" points="46.806 35.915 60.683 29.819 61.327 22.666 52.004 22.666"/><polygon id="Path" fill="#12357C" points="60.683 29.819 61.327 22.666 62.961 29.819"/><polygon id="Path" fill="#1D52BB" points="60.683 29.819 57.356 35.915 64.503 36.57 62.961 29.819"/><polygon id="Path" fill="#12357C" points="57.356 35.915 46.806 35.915 60.683 29.819"/><polygon id="Path" fill="#1D4493" points="52.004 35.915 42.701 44.554 27.26 43.342 46.806 35.915"/><polygon id="Path" fill="#326DE6" points="42.701 44.554 57.356 35.915 52.004 35.915"/><polygon id="Path" fill="#5489F3" points="27.26 54.474 35.524 43.991 27.26 43.342"/><polygon id="Path" fill="#1D4493" points="34.981 49.695 42.701 44.554 35.524 43.991"/><polygon id="Path" fill="#1D52BB" points="34.981 49.695 35.524 43.991 27.26 54.474"/><polygon id="Path" fill="#12357C" points="57.356 35.915 60.683 43.134 65.511 40.998 64.503 36.57"/><polygon id="Path" fill="#1D4493" points="60.683 43.134 65.511 40.998 60.683 47.055"/><polygon id="Path" fill="#12357C" points="60.683 47.055 52.004 39.075 57.356 35.915"/><polygon id="Path" fill="#326DE6" points="57.356 35.915 60.683 43.134 60.683 47.055"/><polygon id="Path" fill="#1D4493" points="42.701 44.554 60.683 47.055 52.004 39.075"/><polygon id="Path" fill="#1D52BB" points="42.701 44.554 50.028 50.24 50.028 45.573"/><polygon id="Path" fill="#12357C" points="50.028 50.24 58.14 50.24 60.683 47.055 50.028 45.573"/><polygon id="Path" fill="#2D55A5" points="50.028 50.24 58.14 50.24 54.084 55.327"/><polygon id="Path" fill="#12357C" points="50.028 50.24 50.028 60.419 54.084 55.327"/><polygon id="Path" fill="#1D52BB" points="27.26 54.474 25.252 63.75 18.265 63.75"/><polygon id="Path" fill="#12357C" points="27.26 54.474 37.892 54.474 43.925 50.24 34.103 50.24"/><polygon id="Path" fill="#2D55A5" points="43.925 50.24 39.736 46.531 34.103 50.24"/><polygon id="Path" fill="#1D4493" points="43.925 50.24 42.701 44.554 39.736 46.531"/><polygon id="Path" fill="#234A96" points="50.028 50.24 43.925 50.24 42.701 44.554"/><polygon id="Path" fill="#326DE6" points="25.252 63.75 37.892 54.474 27.26 54.474"/><polygon id="Path" fill="#12357C" points="25.252 63.75 34.103 63.75 32.816 58.205"/><polygon id="Path" fill="#326DE6" points="47.367 63.75 50.028 50.24 50.028 60.419"/><polygon id="Path" fill="#12357C" points="50.028 50.24 43.925 50.24 47.367 63.75"/><polygon id="Path" fill="#1D4493" points="47.367 63.75 37.892 54.474 43.925 50.24"/><polygon id="Path" fill="#1D4493" points="37.892 54.474 34.103 63.75 32.816 58.205"/><polygon id="Path" fill="#12357C" points="34.103 63.75 47.367 63.75 41.705 58.205"/><polygon id="Path" fill="#2D55A5" points="34.103 63.75 37.892 54.474 41.705 58.205"/><polygon id="Path" fill="#5489F3" points="34.634 27.536 41.607 22.666 41.607 30.832"/><polygon id="Path" fill="#79A5FF" points="21.704 36.57 31.655 29.62 28.459 24.662"/><polygon id="Path" fill="#79A5FF" points="28.459 24.662 31.655 29.62 32.817 16.96"/><polygon id="Path" fill="#2D55A5" points="41.607 22.666 51.467 8.99 53.733 15.676"/><polygon id="Path" fill="#5489F3" points="53.733 15.676 59.035 12.627 51.474 8.99"/><polygon id="Path" fill="#5489F3" points="27.26 43.315 28.612 31.743 21.704 36.573"/><polygon id="Path" fill="#2C60C8" points=".121 40.998 14.15 29.449 21.704 36.573"/><g id="Path" opacity=".858" transform="translate(0.252964, 0.758893)"><path fill="#FFF" d="M14.8158735,18.9276838 C15.2312411,18.9276838 15.5679368,18.5910387 15.5679368,18.1757723 C15.5679368,17.7604806 15.2312411,17.4238356 14.8158735,17.4238356 C14.4007589,17.4238356 14.0640632,17.7604806 14.0640632,18.1757723 C14.0640632,18.5910387 14.4007589,18.9276838 14.8158735,18.9276838 Z"/><path fill="#FFF" d="M5.79288538,34.2668142 C6.20825296,34.2668142 6.54494862,33.9303715 6.54494862,33.515004 C6.54494862,33.0996364 6.20825296,32.7629407 5.79288538,32.7629407 C5.37777075,32.7629407 5.0410751,33.0996364 5.0410751,33.515004 C5.0410751,33.9303715 5.37777075,34.2668142 5.79288538,34.2668142 Z"/><path fill="#FFF" d="M24.440664,28.401834 C24.8557787,28.401834 25.1924743,28.0651383 25.1924743,27.6500237 C25.1924743,27.2346561 24.8557787,26.8979605 24.440664,26.8979605 C24.0252964,26.8979605 23.6886008,27.2346561 23.6886008,27.6500237 C23.6886008,28.0651383 24.0252964,28.401834 24.440664,28.401834 Z"/><path fill="#FFF" d="M36.0201107,33.515004 C36.4354783,33.515004 36.7721739,33.1783083 36.7721739,32.7629407 C36.7721739,32.3478261 36.4354783,32.0111304 36.0201107,32.0111304 C35.604996,32.0111304 35.2683004,32.3478261 35.2683004,32.7629407 C35.2683004,33.1783083 35.604996,33.515004 36.0201107,33.515004 Z"/><path fill="#FFF" d="M18.42517,44.643415 C18.8405375,44.643415 19.1772332,44.3067194 19.1772332,43.8916047 C19.1772332,43.4762372 18.8405375,43.1395415 18.42517,43.1395415 C18.0100553,43.1395415 17.6733597,43.4762372 17.6733597,43.8916047 C17.6733597,44.3067194 18.0100553,44.643415 18.42517,44.643415 Z"/><path fill="#FFF" d="M30.1551304,50.5083953 C30.570498,50.5083953 30.9071937,50.1716996 30.9071937,49.756585 C30.9071937,49.3412174 30.570498,49.0045217 30.1551304,49.0045217 C29.7400158,49.0045217 29.4033202,49.3412174 29.4033202,49.756585 C29.4033202,50.1716996 29.7400158,50.5083953 30.1551304,50.5083953 Z"/><path fill="#FFF" d="M50.1562688,30.8080316 C50.5716364,30.8080316 50.908332,30.471336 50.908332,30.0562213 C50.908332,29.6408538 50.5716364,29.3041581 50.1562688,29.3041581 C49.7411542,29.3041581 49.4044585,29.6408538 49.4044585,30.0562213 C49.4044585,30.471336 49.7411542,30.8080316 50.1562688,30.8080316 Z"/><path fill="#FFF" d="M59.6305455,35.0188775 C60.045913,35.0188775 60.3823557,34.6821818 60.3823557,34.2668142 C60.3823557,33.8516996 60.045913,33.515004 59.6305455,33.515004 C59.2151779,33.515004 58.8784822,33.8516996 58.8784822,34.2668142 C58.8784822,34.6821818 59.2151779,35.0188775 59.6305455,35.0188775 Z"/><path fill="#FFF" d="M47.900585,43.1395415 C48.3156996,43.1395415 48.6523953,42.8028458 48.6523953,42.3877312 C48.6523953,41.9723636 48.3156996,41.635668 47.900585,41.635668 C47.4852174,41.635668 47.1485217,41.9723636 47.1485217,42.3877312 C47.1485217,42.8028458 47.4852174,43.1395415 47.900585,43.1395415 Z"/><path fill="#FFF" d="M52.8632411,52.0122688 C53.2786087,52.0122688 53.6150514,51.6755731 53.6150514,51.2602055 C53.6150514,50.8450909 53.2786087,50.5083953 52.8632411,50.5083953 C52.4478735,50.5083953 52.1114308,50.8450909 52.1114308,51.2602055 C52.1114308,51.6755731 52.4478735,52.0122688 52.8632411,52.0122688 Z"/><path fill="#FFF" d="M43.840253,56.2231146 C44.2553676,56.2231146 44.5920632,55.886419 44.5920632,55.4710514 C44.5920632,55.0559368 44.2553676,54.7192411 43.840253,54.7192411 C43.4248854,54.7192411 43.0881897,55.0559368 43.0881897,55.4710514 C43.0881897,55.886419 43.4248854,56.2231146 43.840253,56.2231146 Z"/><path fill="#FFF" d="M48.6523953,10.3557818 C49.0677628,10.3557818 49.4044585,10.0191368 49.4044585,9.60387036 C49.4044585,9.18857866 49.0677628,8.8519336 48.6523953,8.8519336 C48.2372806,8.8519336 47.900585,9.18857866 47.900585,9.60387036 C47.900585,10.0191368 48.2372806,10.3557818 48.6523953,10.3557818 Z"/><path fill="#FFF" d="M57.074087,18.9276838 C57.4892016,18.9276838 57.8258972,18.5910387 57.8258972,18.1757723 C57.8258972,17.7604806 57.4892016,17.4238356 57.074087,17.4238356 C56.6587194,17.4238356 56.3220237,17.7604806 56.3220237,18.1757723 C56.3220237,18.5910387 56.6587194,18.9276838 57.074087,18.9276838 Z"/><path fill="#FFF" d="M16.319747,58.929834 C16.7351146,58.929834 17.0718103,58.5933913 17.0718103,58.1780237 C17.0718103,57.7626561 16.7351146,57.4259605 16.319747,57.4259605 C15.9046324,57.4259605 15.5679368,57.7626561 15.5679368,58.1780237 C15.5679368,58.5933913 15.9046324,58.929834 16.319747,58.929834 Z"/><path fill="#FFF" d="M26.9971225,8.8519336 C27.4124901,8.8519336 27.7489328,8.51528854 27.7489328,8.10002213 C27.7489328,7.68473043 27.4124901,7.34808538 26.9971225,7.34808538 C26.5817549,7.34808538 26.2453123,7.68473043 26.2453123,8.10002213 C26.2453123,8.51528854 26.5817549,8.8519336 26.9971225,8.8519336 Z"/><path fill="#FFF" d="M39.779668,18.9276838 C40.1950356,18.9276838 40.5317312,18.5910387 40.5317312,18.1757723 C40.5317312,17.7604806 40.1950356,17.4238356 39.779668,17.4238356 C39.3645534,17.4238356 39.0278577,17.7604806 39.0278577,18.1757723 C39.0278577,18.5910387 39.3645534,18.9276838 39.779668,18.9276838 Z"/><line x1="14.816" x2="9.327" y1="18.176" y2="10.384" stroke="#FFF"/><polygon stroke="#FFF" points="14.816 18.176 5.793 33.515 18.425 43.892"/><line x1="5.793" x2="1.569" y1="33.515" y2="32.422" stroke="#FFF"/><line x1="5.793" x2=".169" y1="33.515" y2="38.64" stroke="#FFF"/><line x1="5.793" x2="3.878" y1="33.515" y2="22.471" stroke="#FFF"/><line x1="14.816" x2="4.694" y1="18.176" y2="19.016" stroke="#FFF"/><polygon stroke="#FFF" points="18.425 43.892 16.32 58.339 30.155 49.757"/><polygon stroke="#FFF" points="30.155 49.757 36.02 32.763 43.84 55.471"/><polyline stroke="#FFF" points="30.155 49.757 36.02 32.763 18.425 44.117"/><polygon stroke="#FFF" points="24.441 27.65 39.78 18.176 27.005 8.1"/><polyline stroke="#FFF" points="24.441 27.528 14.816 18.176 26.997 8.217"/><line x1="24.441" x2="18.425" y1="27.65" y2="43.781" stroke="#FFF"/><line x1="24.441" x2="36.02" y1="27.65" y2="32.763" stroke="#FFF"/><polygon stroke="#FFF" points="39.78 18.176 50.156 30.06 36.02 32.763"/><polyline stroke="#FFF" points="50.156 30.056 47.901 42.388 36.02 32.968"/><polygon stroke="#FFF" points="47.901 42.569 43.84 55.471 52.863 51.312"/><line x1="50.156" x2="52.863" y1="30.206" y2="51.312" stroke="#FFF"/><polyline stroke="#FFF" points="50.156 30.06 57.101 18.176 39.78 18.176"/><polyline stroke="#FFF" points="39.78 18.176 48.652 9.604 26.997 8.209"/><polyline stroke="#FFF" points="48.652 9.604 57.074 18.176 59.631 34.267 50.156 30.206"/><line x1="5.793" x2="16.32" y1="33.515" y2="58.178" stroke="#FFF"/><line x1="16.32" x2="43.84" y1="58.178" y2="55.471" stroke="#FFF"/><line x1="43.84" x2="43.67" y1="55.471" y2="62.978" stroke="#FFF"/><line x1="43.84" x2="48.652" y1="55.471" y2="61.107" stroke="#FFF"/><line x1="43.84" x2="32.575" y1="55.471" y2="62.99" stroke="#FFF"/><line x1="16.32" x2="20.906" y1="58.178" y2="62.99" stroke="#FFF"/><line x1="16.32" x2="14.125" y1="58.178" y2="58.178" stroke="#FFF"/><line x1="16.32" x2="16.048" y1="58.289" y2="60.816" stroke="#FFF"/><line x1="52.863" x2="57.886" y1="51.26" y2="49.557" stroke="#FFF"/><line x1="52.863" x2="52.863" y1="51.26" y2="55.968" stroke="#FFF"/><line x1="52.863" x2="55.101" y1="51.26" y2="53.069" stroke="#FFF"/><line x1="26.997" x2="23.162" y1="8.217" y2="3.664" stroke="#FFF"/><line x1="26.997" x2="30.23" y1="8.209" y2=".205" stroke="#FFF"/><line x1="26.997" x2="39.103" y1="8.209" y2="2.16" stroke="#FFF"/><line x1="14.816" x2="16.893" y1="18.176" y2="6.703" stroke="#FFF"/><line x1="57.101" x2="59.106" y1="18.176" y2="13.192" stroke="#FFF"/><line x1="57.101" x2="61.802" y1="18.176" y2="25.009" stroke="#FFF"/><line x1="57.101" x2="60.428" y1="18.176" y2="18.596" stroke="#FFF"/><line x1="48.652" x2="48.652" y1="9.604" y2="6.92" stroke="#FFF"/><line x1="48.652" x2="52.863" y1="9.604" y2="8.852" stroke="#FFF"/><line x1="48.652" x2="46.021" y1="9.604" y2="5.619" stroke="#FFF"/><line x1="59.631" x2="52.863" y1="34.267" y2="51.26" stroke="#FFF"/><line x1="59.631" x2="63.87" y1="34.267" y2="34.267" stroke="#FFF"/><line x1="59.631" x2="62.407" y1="34.267" y2="43.892" stroke="#FFF"/></g></g><path id="Shape" fill="#326DE6" d="M104.92886,50.017057 C104.92886,53.310842 102.239778,56 98.8783678,56 L95.8531216,56 C92.6261923,55.865806 90.0715468,53.243745 90.0043192,50.017057 L90.0043192,45.176271 C90.0043192,43.630024 90.7438232,42.890449 91.3488687,42.554964 C91.7039853,42.4366018 93.2575376,41.7445225 94.449844,41.2137775 L94.4499646,41.2137775 L94.9119314,41.008717 L94.9119314,49.210385 C94.9119314,50.621684 96.0548047,51.764595 97.4665862,51.764595 C98.8783678,51.764595 100.021203,50.621684 100.021203,49.1432879 L100.021203,43.764972 C100.021203,41.008717 97.9372002,37.377939 97.9372002,37.377939 L92.155601,26.5542101 C89.8662304,22.3678085 89.9952835,19.264006 90.0039316,19.0989021 L90.0043192,14.252085 C90.0043192,10.9575461 92.693425,8 96.0548047,8 L99.0800358,8 C102.30695,8.06709702 104.92886,11.0246431 104.92886,14.252085 L104.92886,16.0667201 C104.92886,17.6129671 104.189361,18.3525421 103.584281,18.688781 C103.180945,18.890826 101.298535,19.764595 100.021203,20.3021251 L100.021203,14.8567121 C100.021203,13.3775621 98.8783678,12.2346511 97.4665862,12.2346511 C96.0548047,12.2346511 94.9119314,13.3775621 94.9119314,14.8567121 L94.9119314,19.361259 C94.9119314,22.117514 96.9959874,25.680441 96.9959874,25.680441 L102.777534,36.571267 C105.066974,40.7576686 104.937907,43.8622249 104.929237,44.0265749 L104.92886,50.017057 Z M145.332649,50.017057 C145.332649,53.243745 142.777986,55.865806 139.551072,56 L136.593074,56 C133.231664,56 130.542581,53.310842 130.542581,50.017057 L130.542581,13.982943 C130.542581,10.6884041 133.231664,8 136.593074,8 L139.551072,8 C142.777986,8.06709702 145.332649,10.756255 145.332649,13.982943 L145.332649,21.1758941 C145.332649,22.7221411 144.660397,23.4617161 144.055317,23.730858 L140.559487,25.344202 L140.559487,14.789615 C140.559487,13.3775621 139.416652,12.2346511 137.937653,12.2346511 C136.525826,12.2346511 135.38299,13.3775621 135.38299,14.789615 L135.38299,49.1432879 C135.38299,50.621684 136.525826,51.764595 137.937653,51.764595 C139.416652,51.764595 140.559487,50.621684 140.559487,49.1432879 L140.559487,42.823352 C140.559487,41.277105 141.231739,40.53753 141.836819,40.2012911 C142.088319,40.0761438 142.914668,39.7150262 143.794619,39.3305376 C144.326042,39.0983367 144.876992,38.8578429 145.332649,38.6550441 L145.332649,50.017057 Z M174.980257,55.529567 L174.980257,33.9492061 L180.223625,33.9492061 C180.829006,33.9492061 181.299439,34.420393 181.366536,35.02502 L181.366536,55.529567 L186.207322,55.529567 L186.207322,10.352919 C186.207322,9.5454931 185.736135,8.47043302 184.257739,8.47043302 L181.366536,8.47043302 L181.366536,29.176271 L176.660698,29.176271 C175.517787,29.176271 174.980257,28.840032 174.980257,27.49583 L174.980257,8.47043302 L172.089054,8.47043302 C170.609904,8.47043302 170.139471,9.5454931 170.139471,10.352919 L170.139471,55.529567 L174.980257,55.529567 Z M226.40899,54.252462 C226.072751,54.857089 225.333176,55.529567 223.786929,55.529567 L213.031051,55.529567 L213.031051,9.81463507 C213.098148,9.07506008 213.702775,8.47043302 214.510201,8.47043302 L227.081468,8.47043302 L225.468124,11.966263 C225.198982,12.5708901 224.459407,13.3104651 222.91316,13.3104651 L219.013994,13.3104651 C218.341516,13.3104651 217.871083,13.7808981 217.871083,14.4533761 L217.871083,28.436696 L225.131885,28.436696 C224.884606,28.9938275 224.580031,29.707016 224.304104,30.3538614 C223.979927,31.1137916 223.6942,31.7817462 223.585638,31.9996231 C223.249399,32.605004 222.576921,33.277482 221.030674,33.277482 L219.013994,33.277482 C218.409367,33.277482 217.871083,33.815012 217.871083,34.420393 L217.871083,50.756632 L227.955237,50.756632 C227.753192,51.211987 227.511945,51.7630872 227.280498,52.2938322 C226.896009,53.1743863 226.534891,54.0006597 226.40899,54.252462 Z M253.703906,55.529567 L253.703906,31.2600481 L256.527258,43.562927 L256.538567,43.6074071 L256.557414,43.6805353 L256.579277,43.764972 L256.579277,43.7657259 C256.869528,44.9033596 257.505065,47.394996 260.157282,47.394996 L261.636432,47.394996 L265.266456,31.2600481 L265.266456,55.529567 L270.040145,55.529567 L270.040145,8.47043302 L267.081845,8.47043302 C265.43533,8.47043302 265.041794,9.78221741 264.945295,10.1033784 C264.939264,10.1229798 264.934741,10.1388117 264.930217,10.1508741 L259.619752,37.243745 L254.039391,10.2179711 C254.039391,10.2179711 253.771003,8.47043302 251.888517,8.47043302 L248.930217,8.47043302 L248.930217,55.529567 L253.703906,55.529567 Z M299.149696,23.1254771 L294.914291,55.529567 L289.603072,55.529567 L296.728926,8.47043302 L299.350987,8.47043302 C301.367667,8.47043302 301.703906,9.74753805 301.905951,11.0246431 L308.695566,55.529567 L303.385101,55.529567 L299.149696,23.1254771 Z M334.981765,55.529567 L334.981765,33.9492061 L340.225133,33.9492061 C340.830514,33.9492061 341.300947,34.420393 341.368044,35.02502 L341.368044,55.529567 L346.20883,55.529567 L346.20883,10.352919 C346.20883,9.5454931 345.738397,8.47043302 344.259247,8.47043302 L341.368044,8.47043302 L341.368044,29.176271 L336.662206,29.176271 C335.519295,29.176271 334.981765,28.840032 334.981765,27.49583 L334.981765,8.47043302 L332.091316,8.47043302 C330.612166,8.47043302 330.141733,9.5454931 330.141733,10.352919 L330.141733,55.529567 L334.981765,55.529567 Z M386.411252,54.252462 C386.075013,54.857089 385.335438,55.529567 383.789191,55.529567 L373.032559,55.529567 L373.032559,9.81463507 C373.099656,9.07506008 373.705037,8.47043302 374.511709,8.47043302 L387.082976,8.47043302 L385.469632,11.966263 C385.20049,12.5708901 384.460915,13.3104651 382.914668,13.3104651 L379.015502,13.3104651 C378.343778,13.3104651 377.872591,13.7808981 377.872591,14.4533761 L377.872591,28.436696 L385.133393,28.436696 C384.886114,28.9930736 384.582293,29.7062621 384.306366,30.3531075 L384.305612,30.3538614 L384.304104,30.356877 L384.302596,30.3614004 C383.979927,31.118315 383.695707,31.7825001 383.587146,31.9996231 C383.250907,32.605004 382.579183,33.277482 381.032936,33.277482 L379.015502,33.277482 C378.410875,33.277482 377.872591,33.815012 377.872591,34.420393 L377.872591,50.756632 L387.956745,50.756632 C387.7547,51.211987 387.514206,51.7630872 387.282005,52.2945861 C386.897517,53.1743863 386.536399,54.0006597 386.411252,54.252462 Z M416.192527,55.529567 L416.192527,35.294162 L418.747491,35.294162 C420.024596,35.294162 421.234604,36.033737 421.234604,38.319559 L421.234604,55.529567 L426.07539,55.529567 L426.07539,37.5000707 C426.082175,37.2701315 426.143241,33.9838854 424.327098,33.075437 C426.242755,32.6132969 426.081421,29.0360458 426.07539,28.9108986 L426.07539,14.386279 C426.07539,11.0917401 423.386232,8.47043302 420.15879,8.47043302 L411.352495,8.47043302 L411.352495,55.529567 L416.192527,55.529567 Z M416.192527,30.722518 L418.747491,30.722518 C420.024596,30.722518 421.234604,30.184988 421.234604,28.03336 L421.234604,15.394996 C421.234604,13.646704 420.024596,12.9742261 418.747491,12.9742261 L416.192527,12.9742261 L416.192527,30.722518 Z M461.100787,56 C464.327475,55.865806 466.882439,53.310842 466.949536,50.084154 L466.949536,13.982943 C466.949536,10.756255 464.327475,8.13419403 461.100787,8 L457.402912,8 C454.04203,8 451.352872,10.6884041 451.352872,13.982943 L451.352872,50.084154 C451.419969,53.310842 454.109127,56 457.402912,56 L461.100787,56 Z M458.747868,51.764595 L459.487443,51.764595 C460.898742,51.764595 462.041653,50.621684 462.041653,49.1432879 L462.041653,14.8567121 C462.041653,13.3775621 460.898742,12.2346511 459.487443,12.2346511 L458.747868,12.2346511 C457.335815,12.302502 456.192904,13.445413 456.192904,14.8567121 L456.192904,49.1432879 C456.192904,50.554587 457.335815,51.697498 458.747868,51.764595 Z"/></g></svg>